<svg width="76" height="76" viewBox="0 0 76 76" fill="none" xmlns="http://www.w3.org/2000/svg">
<path d="M52.3621 0H22.7831C10.2004 0 0 10.1925 0 22.7656V52.3217C0 64.8948 10.2004 75.0873 22.7831 75.0873H52.3621C64.9449 75.0873 75.1452 64.8948 75.1452 52.3217V22.7656C75.1452 10.1925 64.9449 0 52.3621 0Z" fill="#212A38"/>
<path d="M21.8997 36.9662V55.9717H28.9214V42.926C26.1 41.6611 23.6203 39.5568 21.8997 36.9691V36.9662Z" fill="#F7F7F7"/>
<path d="M34.3877 41.5598H36.0968V34.5145H30.5813C29.6659 34.5145 28.9214 33.7706 28.9214 32.856V19.1156H21.8997V27.8918C21.8997 34.9227 27.3862 40.9259 34.3877 41.5598Z" fill="#F7F7F7"/>
<path d="M46.2234 42.926V55.9717H53.2452V36.9662C51.5245 39.5539 49.0448 41.6582 46.2234 42.9231V42.926Z" fill="#F7F7F7"/>
<path d="M53.2457 27.8918V19.1156H46.2239V32.856C46.2239 33.7706 45.4794 34.5145 44.564 34.5145H39.0486V41.5598H40.7664C47.7592 40.9259 53.2457 34.9198 53.2457 27.8918Z" fill="#F7F7F7"/>
</svg>
