<svg width="377" height="76" viewBox="0 0 377 76" fill="none" xmlns="http://www.w3.org/2000/svg">
<path d="M52.3621 0H22.7831C10.2004 0 0 10.1925 0 22.7656V52.3217C0 64.8948 10.2004 75.0873 22.7831 75.0873H52.3621C64.9449 75.0873 75.1452 64.8948 75.1452 52.3217V22.7656C75.1452 10.1925 64.9449 0 52.3621 0Z" fill="#212A38"/>
<path d="M21.8997 36.9662V55.9717H28.9214V42.926C26.1 41.6611 23.6203 39.5568 21.8997 36.9691V36.9662Z" fill="#F7F7F7"/>
<path d="M34.3877 41.5598H36.0968V34.5145H30.5813C29.6659 34.5145 28.9214 33.7706 28.9214 32.856V19.1156H21.8997V27.8918C21.8997 34.9227 27.3862 40.9259 34.3877 41.5598Z" fill="#F7F7F7"/>
<path d="M46.2234 42.926V55.9717H53.2452V36.9662C51.5245 39.5539 49.0448 41.6582 46.2234 42.9231V42.926Z" fill="#F7F7F7"/>
<path d="M53.2457 27.8918V19.1156H46.2239V32.856C46.2239 33.7706 45.4794 34.5145 44.564 34.5145H39.0486V41.5598H40.7664C47.7592 40.9259 53.2457 34.9198 53.2457 27.8918Z" fill="#F7F7F7"/>
<path d="M135.551 33.1454H117.762C117.076 33.1454 116.52 32.5897 116.52 31.9037V14.988H107.974V58.8808H116.52V41.9072C116.52 41.2212 117.076 40.6655 117.762 40.6655H135.551C136.238 40.6655 136.794 41.2212 136.794 41.9072V58.8808H145.34V14.988H136.794V31.9037C136.794 32.5897 136.238 33.1454 135.551 33.1454Z" fill="#212A38"/>
<path d="M374.923 58.8807H377V51.3549H372.687C372.003 51.3549 371.447 50.7991 371.447 50.116V14.9879H363.084V47.0478C363.084 53.5808 368.385 58.8778 374.923 58.8778V58.8807Z" fill="#212A38"/>
<path d="M327.709 49.4937C327.031 51.1494 325.673 52.4519 323.981 53.054C322.854 53.5055 321.487 53.7747 320.004 53.7892C317.336 53.8123 315.01 52.9961 313.822 51.7746C312.553 50.6226 311.759 48.9582 311.759 47.1115V44.654H336.171V41.6466C336.171 38.7607 335.568 36.0659 334.366 33.5592C333.164 31.0555 331.368 29.0293 328.981 27.4865C326.594 25.9437 323.636 25.1709 320.105 25.1709C317.417 25.1709 315.05 25.6427 313.005 26.5834C310.96 27.527 309.245 28.789 307.86 30.3724C306.476 31.9557 305.433 33.759 304.732 35.7823C304.031 37.8055 303.677 39.9012 303.677 42.0663V43.2096C303.677 45.2937 304.028 47.3373 304.732 49.3432C305.433 51.3491 306.476 53.1611 307.86 54.7849C309.245 56.4088 310.989 57.6997 313.095 58.6636C315.201 59.6246 317.657 60.108 320.467 60.108C323.277 60.108 325.551 59.6477 327.657 58.7244C329.763 57.8039 331.498 56.4985 332.862 54.8168C334.227 53.1321 335.148 51.1696 335.629 48.9235H327.926C327.868 49.1203 327.793 49.3084 327.709 49.4937ZM311.759 38.396C311.759 35.6549 313.512 33.3219 315.957 32.4535C317.084 32.002 318.451 31.7328 319.934 31.7183C322.602 31.6952 324.928 32.5114 326.116 33.7329C327.385 34.8849 328.178 36.5493 328.178 38.396V39.5423H320.024C320.024 39.5423 320.012 39.5423 320.007 39.5423C319.978 39.5423 319.952 39.5423 319.923 39.5423H311.762V38.396H311.759Z" fill="#212A38"/>
<path d="M254.939 14.982V30.8846C253.847 29.1421 252.477 27.7991 250.817 26.8583C248.87 25.7555 246.614 25.2056 244.047 25.2056C241.721 25.2056 239.603 25.6368 237.7 26.4994C235.794 27.362 234.169 28.5545 232.825 30.0771C231.481 31.5996 230.438 33.3826 229.696 35.4291C228.955 37.4726 228.584 39.658 228.584 41.9823V43.2443C228.584 45.6092 228.963 47.8032 229.728 49.8294C230.49 51.8527 231.573 53.6271 232.978 55.1496C234.383 56.6721 236.046 57.856 237.972 58.6983C239.899 59.5406 242.005 59.9603 244.29 59.9603C246.857 59.9603 249.154 59.4075 251.179 58.3075C253.204 57.2047 254.837 55.5403 256.083 53.3173C256.303 52.9237 256.5 52.504 256.686 52.0756V58.8778H263.305V14.982H254.942H254.939ZM255.179 44.324C255.179 49.0508 251.309 52.9208 246.576 52.9208H243.824C241.283 52.9208 239.056 51.5256 237.865 49.4647C237.045 48.1564 236.486 45.5658 236.486 42.5815C236.486 39.5972 237.045 37.0066 237.865 35.6954C239.056 33.6345 241.283 32.2393 243.824 32.2393H246.576C251.306 32.2393 255.179 36.1064 255.179 40.8361V44.3269V44.324Z" fill="#212A38"/>
<path d="M295.644 42.3384C293.457 40.6161 290.439 39.5538 286.589 39.1515L283.701 38.8505C281.934 38.6507 280.662 38.2687 279.88 37.7071C279.098 37.1456 278.707 36.3438 278.707 35.3018C278.707 35.1657 278.716 35.0297 278.73 34.8994C278.84 33.8921 279.359 33.0093 280.115 32.4159C280.3 32.248 280.552 32.0946 280.868 31.9586C281.03 31.8862 281.198 31.8254 281.372 31.7762C282.221 31.507 283.339 31.3391 284.57 31.3391C285.801 31.3391 286.919 31.5041 287.768 31.7762C287.942 31.8254 288.11 31.8862 288.272 31.9586C288.588 32.0946 288.84 32.248 289.025 32.4159C289.883 33.0874 290.436 34.1295 290.436 35.3018V35.6896C290.436 35.6896 290.439 35.7099 290.439 35.7215H297.962C297.84 32.3146 296.537 29.7298 294.051 27.9641C291.563 26.2013 288.313 25.3185 284.304 25.3185C281.737 25.3185 279.46 25.7092 277.473 26.4908C275.489 27.2723 273.933 28.4243 272.809 29.9469C271.685 31.4694 271.123 33.3537 271.123 35.5999C271.123 38.4047 272.105 40.6509 274.072 42.3326C276.036 44.0172 278.846 45.0592 282.496 45.4587L285.384 45.7597C287.551 45.9594 289.086 46.3821 289.987 47.0217C290.891 47.6643 291.34 48.524 291.34 49.6066C291.34 49.7716 291.328 49.9308 291.308 50.0842C291.267 51.378 290.555 52.4982 289.509 53.1176C289.497 53.1263 289.486 53.1321 289.474 53.1408C289.219 53.2884 288.947 53.4042 288.66 53.4881C287.617 53.8384 286.126 54.0584 284.466 54.0584C282.806 54.0584 281.314 53.8384 280.271 53.4881C279.984 53.4042 279.712 53.2884 279.457 53.1408C279.446 53.135 279.434 53.1263 279.422 53.1176C278.345 52.478 277.621 51.3086 277.621 49.9655V49.184H270.104C270.225 52.5503 271.558 55.1872 274.104 57.0919C276.65 58.9965 280.17 59.9488 284.666 59.9488C287.554 59.9488 290.059 59.5059 292.189 58.626C294.315 57.746 295.969 56.5129 297.154 54.9296C298.336 53.3463 298.929 51.4736 298.929 49.3084C298.929 46.3821 297.834 44.0577 295.65 42.3326L295.644 42.3384Z" fill="#212A38"/>
<path d="M170.084 26.0713H156.591V33.5971H173.152C173.835 33.5971 174.391 34.1528 174.391 34.836V38.9665H167.196C165.31 38.9665 153.396 39.1401 153.396 49.7313C153.396 60.3224 165.249 59.949 165.249 59.949C165.249 59.949 172.227 60.2877 175.307 54.2554V58.878H181.926V38.2399C181.926 31.707 176.625 26.0713 170.087 26.0713H170.084ZM174.391 47.077C174.125 52.7155 170.124 53.9255 167.807 53.992C167.735 53.992 167.662 53.9949 167.593 53.9949C167.52 53.9949 167.445 53.9949 167.37 53.992H166.434C163.783 53.992 161.637 51.8472 161.637 49.1987V49.0047C161.637 45.1087 165.191 43.9538 167.593 43.9538H174.391V47.0741V47.077Z" fill="#212A38"/>
<path d="M355.41 58.8807H357.487V51.3549H353.174C352.49 51.3549 351.934 50.7991 351.934 50.116V14.9879H343.571V47.0478C343.571 53.5808 348.872 58.8778 355.41 58.8778V58.8807Z" fill="#212A38"/>
<path d="M212.443 32.723C213.127 32.723 213.683 33.2787 213.683 33.9618V58.8809H221.756V37.0271C221.756 30.4942 216.455 25.1972 209.917 25.1972H202.759C196.221 25.1972 190.92 30.4942 190.92 37.0271V58.8809H198.993V33.9618C198.993 33.2787 199.55 32.723 200.233 32.723H212.443Z" fill="#212A38"/>
</svg>
