<svg width="531" height="60" viewBox="0 0 531 60" fill="none" xmlns="http://www.w3.org/2000/svg">
<path d="M41.592 0H18.097C8.1023 0 0 8.09605 0 18.083V41.56C0 51.5469 8.1023 59.643 18.097 59.643H41.592C51.5867 59.643 59.689 51.5469 59.689 41.56V18.083C59.689 8.09605 51.5867 0 41.592 0Z" fill="#212A38"/>
<path d="M17.395 29.3657V44.4621H22.9725V34.0997C20.7314 33.0949 18.7618 31.4234 17.395 29.368V29.3657Z" fill="#F7F7F7"/>
<path d="M27.3144 33.0126H28.672V27.4164H24.291C23.5639 27.4164 22.9725 26.8255 22.9725 26.099V15.1848H17.395V22.1559C17.395 27.7406 21.753 32.5091 27.3144 33.0126Z" fill="#F7F7F7"/>
<path d="M36.7168 34.0997V44.4621H42.2943V29.3657C40.9275 31.4211 38.9579 33.0926 36.7168 34.0974V34.0997Z" fill="#F7F7F7"/>
<path d="M42.2936 22.1559V15.1848H36.7161V26.099C36.7161 26.8255 36.1247 27.4164 35.3976 27.4164H31.0166V33.0126H32.3811C37.9356 32.5091 42.2936 27.7383 42.2936 22.1559Z" fill="#F7F7F7"/>
<path d="M107.671 26.3307H93.5405C92.9952 26.3307 92.5534 25.8893 92.5534 25.3444V11.908H85.7656V46.7727H92.5534V33.2903C92.5534 32.7454 92.9952 32.304 93.5405 32.304H107.671C108.216 32.304 108.658 32.7454 108.658 33.2903V46.7727H115.446V11.908H108.658V25.3444C108.658 25.8893 108.216 26.3307 107.671 26.3307Z" fill="#212A38"/>
<path d="M297.807 46.7725H299.457V40.7947H296.03C295.487 40.7947 295.046 40.3532 295.046 39.8106V11.9078H288.403V37.3735C288.403 42.5627 292.614 46.7702 297.807 46.7702V46.7725Z" fill="#212A38"/>
<path d="M260.304 39.3168C259.766 40.632 258.686 41.6666 257.343 42.1448C256.448 42.5035 255.362 42.7173 254.183 42.7288C252.064 42.7472 250.217 42.0988 249.273 41.1286C248.265 40.2135 247.635 38.8915 247.635 37.4246V35.4726H267.025V33.0838C267.025 30.7915 266.547 28.6509 265.592 26.6598C264.637 24.6711 263.21 23.0616 261.314 21.8362C259.418 20.6107 257.069 19.9968 254.264 19.9968C252.129 19.9968 250.249 20.3716 248.624 21.1188C247 21.8684 245.638 22.8708 244.538 24.1285C243.438 25.3861 242.61 26.8185 242.053 28.4256C241.496 30.0327 241.215 31.6973 241.215 33.4171V34.3253C241.215 35.9807 241.494 37.6039 242.053 39.1973C242.61 40.7906 243.438 42.2299 244.538 43.5197C245.638 44.8096 247.023 45.835 248.696 46.6006C250.369 47.3639 252.32 47.7479 254.552 47.7479C256.784 47.7479 258.59 47.3823 260.263 46.6489C261.935 45.9178 263.314 44.8808 264.397 43.545C265.481 42.2069 266.213 40.648 266.595 38.8639H260.477C260.431 39.0202 260.371 39.1697 260.304 39.3168ZM247.635 30.5018C247.635 28.3244 249.027 26.4713 250.969 25.7816C251.864 25.4229 252.95 25.2091 254.128 25.1976C256.247 25.1792 258.095 25.8275 259.039 26.7978C260.046 27.7129 260.677 29.0349 260.677 30.5018V31.4122H254.2C254.2 31.4122 254.19 31.4122 254.186 31.4122C254.163 31.4122 254.142 31.4122 254.119 31.4122H247.637V30.5018H247.635Z" fill="#212A38"/>
<path d="M202.502 11.9012V24.5329C201.634 23.1488 200.546 22.082 199.228 21.3348C197.681 20.4588 195.889 20.0219 193.85 20.0219C192.003 20.0219 190.321 20.3645 188.809 21.0497C187.295 21.7348 186.004 22.6821 184.936 23.8915C183.869 25.1008 183.04 26.5171 182.451 28.1426C181.862 29.7659 181.568 31.5017 181.568 33.348V34.3504C181.568 36.2289 181.869 37.9716 182.477 39.5811C183.082 41.1882 183.942 42.5976 185.058 43.8069C186.174 45.0163 187.495 45.9567 189.025 46.6257C190.555 47.2948 192.228 47.6282 194.044 47.6282C196.082 47.6282 197.907 47.189 199.515 46.3154C201.124 45.4394 202.421 44.1173 203.411 42.3516C203.586 42.0389 203.742 41.7055 203.889 41.3652V46.7683H209.147V11.9012H202.504H202.502ZM202.693 35.208C202.693 38.9626 199.619 42.0366 195.859 42.0366H193.673C191.655 42.0366 189.886 40.9284 188.94 39.2914C188.289 38.2521 187.845 36.1944 187.845 33.8239C187.845 31.4535 188.289 29.3957 188.94 28.3542C189.886 26.7172 191.655 25.6089 193.673 25.6089H195.859C199.617 25.6089 202.693 28.6807 202.693 32.4375V35.2103V35.208Z" fill="#212A38"/>
<path d="M234.834 33.6323C233.097 32.2643 230.7 31.4205 227.642 31.1009L225.348 30.8618C223.944 30.7032 222.934 30.3997 222.313 29.9536C221.691 29.5076 221.381 28.8707 221.381 28.043C221.381 27.935 221.388 27.8269 221.399 27.7234C221.487 26.9233 221.898 26.2221 222.499 25.7507C222.646 25.6174 222.846 25.4955 223.097 25.3875C223.226 25.33 223.36 25.2817 223.498 25.2426C224.172 25.0288 225.06 24.8954 226.038 24.8954C227.016 24.8954 227.904 25.0265 228.578 25.2426C228.716 25.2817 228.85 25.33 228.978 25.3875C229.229 25.4955 229.429 25.6174 229.577 25.7507C230.258 26.2842 230.697 27.1119 230.697 28.043V28.3511C230.697 28.3511 230.7 28.3672 230.7 28.3764H236.675C236.578 25.6703 235.543 23.6171 233.569 22.2146C231.592 20.8144 229.011 20.1132 225.826 20.1132C223.788 20.1132 221.979 20.4235 220.4 21.0443C218.824 21.6651 217.589 22.5802 216.696 23.7895C215.803 24.9989 215.357 26.4957 215.357 28.2798C215.357 30.5077 216.137 32.2919 217.699 33.6277C219.259 34.9658 221.491 35.7936 224.39 36.1108L226.684 36.35C228.406 36.5086 229.625 36.8443 230.341 37.3524C231.059 37.8628 231.415 38.5457 231.415 39.4056C231.415 39.5366 231.406 39.6631 231.39 39.7849C231.358 40.8127 230.792 41.7024 229.961 42.1945C229.952 42.2014 229.943 42.206 229.933 42.2129C229.731 42.3301 229.515 42.4221 229.287 42.4888C228.458 42.767 227.273 42.9417 225.955 42.9417C224.637 42.9417 223.452 42.767 222.623 42.4888C222.395 42.4221 222.179 42.3301 221.977 42.2129C221.967 42.2083 221.958 42.2014 221.949 42.1945C221.093 41.6863 220.518 40.7575 220.518 39.6907V39.0699H214.547C214.644 41.7438 215.702 43.8384 217.724 45.3512C219.747 46.8641 222.543 47.6205 226.114 47.6205C228.408 47.6205 230.398 47.2687 232.089 46.5698C233.778 45.8708 235.092 44.8914 236.033 43.6338C236.972 42.3761 237.444 40.8885 237.444 39.1687C237.444 36.8443 236.574 34.998 234.839 33.6277L234.834 33.6323Z" fill="#212A38"/>
<path d="M135.101 20.7105H124.383V26.6884H137.537C138.08 26.6884 138.522 27.1298 138.522 27.6724V30.9533H132.806C131.309 30.9533 121.845 31.0913 121.845 39.504C121.845 47.9167 131.26 47.6201 131.26 47.6201C131.26 47.6201 136.803 47.8891 139.249 43.0976V46.7694H144.507V30.3763C144.507 25.187 140.296 20.7105 135.103 20.7105H135.101ZM138.522 37.3956C138.31 41.8744 135.133 42.8355 133.292 42.8884C133.234 42.8884 133.177 42.8907 133.122 42.8907C133.064 42.8907 133.004 42.8907 132.945 42.8884H132.201C130.096 42.8884 128.391 41.1847 128.391 39.0809V38.9269C128.391 35.8322 131.214 34.9148 133.122 34.9148H138.522V37.3933V37.3956Z" fill="#212A38"/>
<path d="M282.307 46.7725H283.957V40.7947H280.531C279.988 40.7947 279.546 40.3532 279.546 39.8106V11.9078H272.903V37.3735C272.903 42.5627 277.114 46.7702 282.307 46.7702V46.7725Z" fill="#212A38"/>
<path d="M168.746 25.9937C169.289 25.9937 169.731 26.4352 169.731 26.9778V46.7714H176.144V29.4126C176.144 24.2234 171.933 20.0159 166.74 20.0159H161.054C155.861 20.0159 151.65 24.2234 151.65 29.4126V46.7714H158.063V26.9778C158.063 26.4352 158.505 25.9937 159.048 25.9937H168.746Z" fill="#212A38"/>
<path d="M377.683 47.8257C374.325 47.8257 371.309 47.0186 368.637 45.4043C366 43.7901 363.905 41.5301 362.352 38.6244C360.836 35.6828 360.077 32.2929 360.077 28.4545C360.077 24.5802 360.836 21.1903 362.352 18.2846C363.905 15.3789 366 13.1189 368.637 11.5047C371.309 9.89039 374.325 9.08325 377.683 9.08325C381.042 9.08325 384.04 9.89039 386.676 11.5047C389.349 13.1189 391.443 15.3968 392.96 18.3384C394.477 21.2441 395.236 24.6161 395.236 28.4545C395.236 32.3287 394.477 35.7187 392.96 38.6244C391.443 41.5301 389.349 43.7901 386.676 45.4043C384.04 47.0186 381.042 47.8257 377.683 47.8257ZM377.683 44.9739C380.428 44.9739 382.884 44.2923 385.051 42.9291C387.254 41.566 388.988 39.6468 390.252 37.1716C391.552 34.6963 392.202 31.7907 392.202 28.4545C392.202 25.0825 391.552 22.1588 390.252 19.6836C388.988 17.2084 387.254 15.3072 385.051 13.9799C382.884 12.6167 380.428 11.9351 377.683 11.9351C374.939 11.9351 372.465 12.6167 370.262 13.9799C368.095 15.3072 366.361 17.2084 365.061 19.6836C363.797 22.1588 363.165 25.0825 363.165 28.4545C363.165 31.7907 363.797 34.6963 365.061 37.1716C366.361 39.6468 368.095 41.566 370.262 42.9291C372.465 44.2923 374.939 44.9739 377.683 44.9739Z" fill="#212A38"/>
<path d="M402.432 47.2877V20.5984H405.357V27.8626L404.328 27.3783C404.978 25.1901 406.17 23.522 407.903 22.3741C409.637 21.1903 411.569 20.5984 413.7 20.5984H416.3V23.4503H413.32C411.804 23.4503 410.449 23.809 409.258 24.5264C408.066 25.2439 407.127 26.2483 406.441 27.5397C405.754 28.7953 405.411 30.3019 405.411 32.0597V47.2877H402.432Z" fill="#212A38"/>
<path d="M421.212 47.2877V20.5984H424.192V47.2877H421.212ZM422.675 14.3027C422.025 14.3027 421.465 14.0875 420.996 13.657C420.526 13.1907 420.291 12.6167 420.291 11.9351C420.291 11.2535 420.526 10.6975 420.996 10.2671C421.465 9.80071 422.025 9.56753 422.675 9.56753C423.361 9.56753 423.939 9.80071 424.409 10.2671C424.878 10.6975 425.113 11.2535 425.113 11.9351C425.113 12.6167 424.878 13.1907 424.409 13.657C423.939 14.0875 423.361 14.3027 422.675 14.3027Z" fill="#212A38"/>
<path d="M443.743 47.8257C441.214 47.8257 438.975 47.2518 437.025 46.1039C435.111 44.9201 433.594 43.2878 432.475 41.2072C431.391 39.0907 430.849 36.6693 430.849 33.943C430.849 31.1808 431.391 28.7594 432.475 26.6788C433.558 24.5623 435.039 22.9301 436.917 21.7822C438.831 20.5984 441.034 20.0065 443.526 20.0065C445.982 20.0065 448.131 20.5984 449.972 21.7822C451.814 22.9301 453.259 24.5444 454.306 26.625C455.354 28.6697 455.877 31.0373 455.877 33.7278V34.2121L455.119 34.9654H432.529V32.1135H454.144L452.844 32.813C452.771 30.6607 452.302 28.8491 451.435 27.3783C450.604 25.9075 449.503 24.7955 448.131 24.0422C446.758 23.253 445.223 22.8584 443.526 22.8584C441.72 22.8584 440.077 23.3068 438.596 24.2036C437.151 25.1004 435.996 26.3559 435.129 27.9702C434.262 29.5845 433.829 31.4319 433.829 33.5125V34.2121C433.829 36.3285 434.244 38.1939 435.075 39.8082C435.942 41.4225 437.115 42.6959 438.596 43.6286C440.113 44.5255 441.828 44.9739 443.743 44.9739C445.729 44.9739 447.408 44.5255 448.781 43.6286C450.153 42.7318 451.237 41.4942 452.031 39.9158H452.627L454.902 40.992C453.927 43.0726 452.482 44.7407 450.568 45.9962C448.69 47.2159 446.415 47.8257 443.743 47.8257Z" fill="#212A38"/>
<path d="M462.583 47.2877V20.5984H465.508V27.8626L464.479 27.3783C464.985 25.7999 465.779 24.4726 466.863 23.3964C467.946 22.2844 469.21 21.4414 470.655 20.8674C472.099 20.2935 473.598 20.0065 475.151 20.0065C477.137 20.0065 478.871 20.419 480.352 21.2441C481.833 22.0692 482.988 23.2888 483.819 24.9031C484.65 26.4815 485.065 28.4366 485.065 30.7683V47.2877H482.085V31.3602C482.085 29.3154 481.76 27.6832 481.11 26.4636C480.496 25.208 479.611 24.3112 478.456 23.7731C477.336 23.1992 476.036 22.9122 474.555 22.9122C473.002 22.9122 471.54 23.2888 470.167 24.0422C468.795 24.7596 467.675 25.8179 466.808 27.2169C465.978 28.5801 465.562 30.2481 465.562 32.2211V47.2877H462.583Z" fill="#212A38"/>
<path d="M500.732 47.2877C498.493 47.2877 496.705 46.6419 495.369 45.3505C494.032 44.0232 493.364 42.0502 493.364 39.4315V13.6032H496.344V39.2701C496.344 41.1714 496.723 42.5166 497.482 43.3058C498.24 44.0591 499.468 44.4358 501.165 44.4358H504.091L504.361 45.0277V47.2877H500.732ZM488.76 23.4503V20.5984H504.361V23.4503H488.76Z" fill="#212A38"/>
<path d="M518.215 47.8257C516.373 47.8257 514.748 47.485 513.339 46.8034C511.931 46.0859 510.811 45.1174 509.981 43.8977C509.186 42.678 508.789 41.2969 508.789 39.7544C508.789 37.602 509.547 35.8084 511.064 34.3735C512.617 32.9027 514.856 32.0597 517.782 31.8445L528.725 31.0373V33.8354L518.54 34.5887C516.229 34.7681 514.531 35.3241 513.448 36.2568C512.4 37.1536 511.877 38.3015 511.877 39.7006C511.877 41.279 512.491 42.5525 513.719 43.521C514.947 44.4896 516.5 44.9739 518.378 44.9739C520.111 44.9739 521.7 44.5613 523.145 43.7363C524.626 42.8753 525.799 41.7453 526.666 40.3463C527.569 38.9114 528.02 37.3509 528.02 35.6649V31.3602C528.02 28.7774 527.316 26.7147 525.908 25.1721C524.535 23.6296 522.603 22.8584 520.111 22.8584C518.269 22.8584 516.68 23.3068 515.344 24.2036C514.008 25.1004 513.032 26.3918 512.418 28.0778H511.823L509.385 27.1631C510.252 24.8314 511.624 23.0557 513.502 21.836C515.38 20.6163 517.601 20.0065 520.165 20.0065C523.632 20.0065 526.305 21.0647 528.183 23.1812C530.061 25.2618 531 28.2393 531 32.1135V47.2877H528.075V39.4853L529.104 40.2925C528.67 41.7274 527.912 43.0188 526.829 44.1667C525.781 45.2788 524.517 46.1756 523.036 46.8572C521.556 47.5029 519.949 47.8257 518.215 47.8257Z" fill="#212A38"/>
<rect x="329.083" y="0.456116" width="1.82318" height="58.7974" fill="#212A38"/>
</svg>
