<svg width="446" height="59" viewBox="0 0 446 59" fill="none" xmlns="http://www.w3.org/2000/svg">
<path d="M21.9051 25.8746H7.77492C7.2296 25.8746 6.78781 25.4332 6.78781 24.8883V11.4519H0V46.3166H6.78781V32.8342C6.78781 32.2893 7.2296 31.8479 7.77492 31.8479H21.9051C22.4504 31.8479 22.8922 32.2893 22.8922 32.8342V46.3166H29.68V11.4519H22.8922V24.8883C22.8922 25.4332 22.4504 25.8746 21.9051 25.8746Z" fill="#212A38"/>
<path d="M212.041 46.3164H213.691V40.3385H210.265C209.722 40.3385 209.28 39.8971 209.28 39.3545V11.4517H202.637V36.9174C202.637 42.1066 206.848 46.3141 212.041 46.3141V46.3164Z" fill="#212A38"/>
<path d="M174.538 38.8607C174 40.1759 172.921 41.2105 171.577 41.6887C170.682 42.0474 169.596 42.2612 168.418 42.2727C166.298 42.2911 164.451 41.6427 163.507 40.6725C162.5 39.7574 161.869 38.4354 161.869 36.9685V35.0165H181.259V32.6277C181.259 30.3354 180.781 28.1948 179.826 26.2038C178.871 24.215 177.444 22.6055 175.548 21.3801C173.652 20.1546 171.303 19.5407 168.498 19.5407C166.363 19.5407 164.483 19.9155 162.859 20.6627C161.234 21.4123 159.872 22.4147 158.772 23.6724C157.672 24.93 156.844 26.3624 156.287 27.9695C155.73 29.5766 155.449 31.2413 155.449 32.961V33.8692C155.449 35.5246 155.728 37.1478 156.287 38.7412C156.844 40.3345 157.672 41.7738 158.772 43.0636C159.872 44.3535 161.257 45.3789 162.93 46.1445C164.603 46.9079 166.554 47.2918 168.786 47.2918C171.018 47.2918 172.824 46.9262 174.497 46.1928C176.17 45.4617 177.548 44.4247 178.632 43.0889C179.715 41.7508 180.447 40.192 180.829 38.4078H174.711C174.665 38.5641 174.605 38.7136 174.538 38.8607ZM161.869 30.0457C161.869 27.8684 163.261 26.0152 165.203 25.3255C166.098 24.9668 167.184 24.753 168.362 24.7415C170.482 24.7231 172.329 25.3715 173.273 26.3417C174.28 27.2568 174.911 28.5788 174.911 30.0457V30.9562H168.434C168.434 30.9562 168.425 30.9562 168.42 30.9562C168.397 30.9562 168.376 30.9562 168.353 30.9562H161.871V30.0457H161.869Z" fill="#212A38"/>
<path d="M116.737 11.4452V24.0768C115.869 22.6927 114.781 21.6259 113.462 20.8787C111.916 20.0027 110.124 19.5659 108.085 19.5659C106.237 19.5659 104.555 19.9084 103.044 20.5936C101.53 21.2787 100.239 22.226 99.1711 23.4354C98.1034 24.6447 97.2751 26.061 96.6861 27.6866C96.097 29.3098 95.8025 31.0457 95.8025 32.8919V33.8943C95.8025 35.7728 96.1039 37.5155 96.7114 39.125C97.3165 40.7321 98.1771 42.1415 99.293 43.3509C100.409 44.5602 101.73 45.5006 103.26 46.1697C104.79 46.8387 106.463 47.1721 108.278 47.1721C110.317 47.1721 112.142 46.733 113.75 45.8593C115.358 44.9833 116.656 43.6613 117.645 41.8955C117.82 41.5828 117.977 41.2494 118.124 40.9091V46.3122H123.382V11.4452H116.739H116.737ZM116.928 34.7519C116.928 38.5065 113.853 41.5805 110.094 41.5805H107.908C105.89 41.5805 104.12 40.4723 103.175 38.8353C102.524 37.796 102.079 35.7383 102.079 33.3678C102.079 30.9974 102.524 28.9396 103.175 27.8981C104.12 26.2611 105.89 25.1529 107.908 25.1529H110.094C113.851 25.1529 116.928 28.2246 116.928 31.9814V34.7542V34.7519Z" fill="#212A38"/>
<path d="M149.069 33.1762C147.332 31.8082 144.934 30.9644 141.876 30.6448L139.582 30.4057C138.179 30.247 137.168 29.9435 136.547 29.4975C135.926 29.0515 135.615 28.4146 135.615 27.5869C135.615 27.4788 135.622 27.3708 135.634 27.2673C135.721 26.4672 136.133 25.7659 136.734 25.2946C136.881 25.1613 137.081 25.0394 137.332 24.9313C137.461 24.8739 137.594 24.8256 137.732 24.7865C138.406 24.5727 139.295 24.4393 140.272 24.4393C141.25 24.4393 142.139 24.5704 142.813 24.7865C142.951 24.8256 143.084 24.8739 143.213 24.9313C143.464 25.0394 143.664 25.1613 143.811 25.2946C144.492 25.828 144.932 26.6557 144.932 27.5869V27.895C144.932 27.895 144.934 27.9111 144.934 27.9203H150.91C150.813 25.2141 149.778 23.161 147.803 21.7585C145.827 20.3583 143.245 19.657 140.061 19.657C138.022 19.657 136.214 19.9674 134.635 20.5882C133.059 21.209 131.823 22.124 130.931 23.3334C130.038 24.5428 129.591 26.0395 129.591 27.8237C129.591 30.0516 130.371 31.8358 131.934 33.1716C133.494 34.5097 135.726 35.3374 138.625 35.6547L140.919 35.8938C142.64 36.0525 143.86 36.3881 144.575 36.8963C145.293 37.4067 145.65 38.0895 145.65 38.9494C145.65 39.0805 145.641 39.2069 145.624 39.3288C145.592 40.3565 145.026 41.2463 144.196 41.7383C144.186 41.7452 144.177 41.7498 144.168 41.7567C143.965 41.874 143.749 41.9659 143.521 42.0326C142.693 42.3108 141.508 42.4856 140.19 42.4856C138.871 42.4856 137.686 42.3108 136.858 42.0326C136.63 41.9659 136.414 41.874 136.211 41.7567C136.202 41.7521 136.193 41.7452 136.184 41.7383C135.328 41.2302 134.752 40.3013 134.752 39.2345V38.6137H128.781C128.878 41.2877 129.937 43.3822 131.959 44.8951C133.982 46.408 136.777 47.1644 140.348 47.1644C142.642 47.1644 144.633 46.8126 146.324 46.1137C148.013 45.4147 149.327 44.4353 150.268 43.1776C151.207 41.92 151.678 40.4324 151.678 38.7126C151.678 36.3881 150.809 34.5419 149.074 33.1716L149.069 33.1762Z" fill="#212A38"/>
<path d="M49.3347 20.2544H38.6168V26.2323H51.7714C52.3144 26.2323 52.7562 26.6737 52.7562 27.2163V30.4973H47.0406C45.5427 30.4973 36.0789 30.6352 36.0789 39.0479C36.0789 47.4606 45.4944 47.164 45.4944 47.164C45.4944 47.164 51.0374 47.433 53.4833 42.6415V46.3133H58.741V29.9202C58.741 24.7309 54.5302 20.2544 49.3369 20.2544H49.3347ZM52.7562 36.9396C52.5445 41.4184 49.3669 42.3794 47.5261 42.4323C47.4686 42.4323 47.4111 42.4346 47.3558 42.4346C47.2983 42.4346 47.2385 42.4346 47.1787 42.4323H46.4354C44.3301 42.4323 42.6251 40.7286 42.6251 38.6249V38.4708C42.6251 35.3761 45.4483 34.4587 47.3558 34.4587H52.7562V36.9373V36.9396Z" fill="#212A38"/>
<path d="M196.542 46.3164H198.191V40.3385H194.765C194.222 40.3385 193.781 39.8971 193.781 39.3545V11.4517H187.138V36.9174C187.138 42.1066 191.348 46.3141 196.542 46.3141V46.3164Z" fill="#212A38"/>
<path d="M82.9811 25.5376C83.5241 25.5376 83.9659 25.9791 83.9659 26.5217V46.3153H90.3787V28.9565C90.3787 23.7673 86.1679 19.5598 80.9747 19.5598H75.289C70.0958 19.5598 65.885 23.7673 65.885 28.9565V46.3153H72.2978V26.5217C72.2978 25.9791 72.7395 25.5376 73.2826 25.5376H82.9811Z" fill="#212A38"/>
<path d="M291.918 47.3696C288.559 47.3696 285.544 46.5625 282.871 44.9482C280.235 43.334 278.14 41.074 276.587 38.1683C275.07 35.2267 274.312 31.8368 274.312 27.9984C274.312 24.1241 275.07 20.7342 276.587 17.8285C278.14 14.9228 280.235 12.6628 282.871 11.0486C285.544 9.43428 288.559 8.62714 291.918 8.62714C295.277 8.62714 298.274 9.43428 300.911 11.0486C303.583 12.6628 305.678 14.9407 307.195 17.8823C308.712 20.788 309.47 24.16 309.47 27.9984C309.47 31.8726 308.712 35.2626 307.195 38.1683C305.678 41.074 303.583 43.334 300.911 44.9482C298.274 46.5625 295.277 47.3696 291.918 47.3696ZM291.918 44.5178C294.663 44.5178 297.119 43.8362 299.286 42.473C301.489 41.1099 303.222 39.1907 304.486 36.7154C305.786 34.2402 306.436 31.3345 306.436 27.9984C306.436 24.6264 305.786 21.7027 304.486 19.2275C303.222 16.7523 301.489 14.8511 299.286 13.5238C297.119 12.1606 294.663 11.479 291.918 11.479C289.173 11.479 286.699 12.1606 284.496 13.5238C282.329 14.8511 280.596 16.7523 279.296 19.2275C278.032 21.7027 277.4 24.6264 277.4 27.9984C277.4 31.3345 278.032 34.2402 279.296 36.7154C280.596 39.1907 282.329 41.1099 284.496 42.473C286.699 43.8362 289.173 44.5178 291.918 44.5178Z" fill="#212A38"/>
<path d="M316.666 46.8315V20.1423H319.592V27.4065L318.562 26.9222C319.212 24.734 320.404 23.0659 322.138 21.918C323.871 20.7342 325.804 20.1423 327.934 20.1423H330.535V22.9942H327.555C326.038 22.9942 324.684 23.3529 323.492 24.0703C322.3 24.7878 321.361 25.7922 320.675 27.0836C319.989 28.3392 319.646 29.8458 319.646 31.6036V46.8315H316.666Z" fill="#212A38"/>
<path d="M335.447 46.8315V20.1423H338.427V46.8315H335.447ZM336.91 13.8466C336.26 13.8466 335.7 13.6314 335.23 13.2009C334.761 12.7346 334.526 12.1606 334.526 11.479C334.526 10.7974 334.761 10.2414 335.23 9.81094C335.7 9.3446 336.26 9.11143 336.91 9.11143C337.596 9.11143 338.174 9.3446 338.643 9.81094C339.113 10.2414 339.348 10.7974 339.348 11.479C339.348 12.1606 339.113 12.7346 338.643 13.2009C338.174 13.6314 337.596 13.8466 336.91 13.8466Z" fill="#212A38"/>
<path d="M357.977 47.3696C355.449 47.3696 353.21 46.7957 351.26 45.6477C349.346 44.4639 347.829 42.8317 346.709 40.7511C345.626 38.6346 345.084 36.2132 345.084 33.4869C345.084 30.7247 345.626 28.3033 346.709 26.2227C347.793 24.1062 349.273 22.474 351.151 21.3261C353.065 20.1423 355.269 19.5504 357.76 19.5504C360.216 19.5504 362.365 20.1423 364.207 21.3261C366.049 22.474 367.494 24.0883 368.541 26.1689C369.588 28.2136 370.112 30.5812 370.112 33.2717V33.756L369.354 34.5093H346.763V31.6574H368.378L367.078 32.3569C367.006 30.2046 366.537 28.393 365.67 26.9222C364.839 25.4514 363.738 24.3394 362.365 23.5861C360.993 22.7969 359.458 22.4023 357.76 22.4023C355.955 22.4023 354.311 22.8507 352.831 23.7475C351.386 24.6443 350.23 25.8998 349.364 27.5141C348.497 29.1284 348.063 30.9758 348.063 33.0564V33.756C348.063 35.8724 348.479 37.7378 349.309 39.3521C350.176 40.9664 351.35 42.2398 352.831 43.1725C354.348 44.0693 356.063 44.5178 357.977 44.5178C359.964 44.5178 361.643 44.0693 363.015 43.1725C364.388 42.2757 365.471 41.0381 366.266 39.4597H366.862L369.137 40.5359C368.162 42.6165 366.717 44.2846 364.803 45.5401C362.925 46.7598 360.65 47.3696 357.977 47.3696Z" fill="#212A38"/>
<path d="M376.818 46.8315V20.1423H379.743V27.4065L378.714 26.9222C379.219 25.3438 380.014 24.0165 381.097 22.9403C382.181 21.8283 383.445 20.9853 384.889 20.4113C386.334 19.8374 387.833 19.5504 389.386 19.5504C391.372 19.5504 393.106 19.9629 394.586 20.788C396.067 21.6131 397.223 22.8327 398.053 24.447C398.884 26.0254 399.299 27.9805 399.299 30.3122V46.8315H396.32V30.9041C396.32 28.8593 395.995 27.2271 395.345 26.0075C394.731 24.7519 393.846 23.8551 392.69 23.317C391.571 22.743 390.271 22.4561 388.79 22.4561C387.237 22.4561 385.774 22.8327 384.402 23.5861C383.029 24.3035 381.91 25.3617 381.043 26.7608C380.212 28.1239 379.797 29.792 379.797 31.765V46.8315H376.818Z" fill="#212A38"/>
<path d="M414.967 46.8315C412.727 46.8315 410.94 46.1858 409.603 44.8944C408.267 43.5671 407.599 41.5941 407.599 38.9754V13.1471H410.578V38.814C410.578 40.7153 410.958 42.0605 411.716 42.8497C412.475 43.603 413.702 43.9797 415.4 43.9797H418.325L418.596 44.5716V46.8315H414.967ZM402.994 22.9942V20.1423H418.596V22.9942H402.994Z" fill="#212A38"/>
<path d="M432.45 47.3696C430.608 47.3696 428.983 47.0288 427.574 46.3473C426.166 45.6298 425.046 44.6612 424.215 43.4416C423.421 42.2219 423.024 40.8408 423.024 39.2983C423.024 37.1459 423.782 35.3523 425.299 33.9174C426.852 32.4466 429.091 31.6036 432.016 31.3884L442.959 30.5812V33.3793L432.775 34.1326C430.463 34.312 428.766 34.868 427.682 35.8007C426.635 36.6975 426.111 37.8454 426.111 39.2445C426.111 40.8229 426.725 42.0963 427.953 43.0649C429.181 44.0335 430.734 44.5178 432.612 44.5178C434.346 44.5178 435.935 44.1052 437.379 43.2801C438.86 42.4192 440.034 41.2892 440.901 39.8902C441.804 38.4553 442.255 36.8948 442.255 35.2088V30.9041C442.255 28.3212 441.551 26.2586 440.142 24.716C438.77 23.1735 436.838 22.4023 434.346 22.4023C432.504 22.4023 430.915 22.8507 429.578 23.7475C428.242 24.6443 427.267 25.9357 426.653 27.6217H426.057L423.619 26.707C424.486 24.3752 425.859 22.5996 427.737 21.3799C429.615 20.1602 431.836 19.5504 434.4 19.5504C437.867 19.5504 440.54 20.6086 442.418 22.7251C444.296 24.8057 445.235 27.7832 445.235 31.6574V46.8315H442.309V39.0292L443.338 39.8364C442.905 41.2713 442.147 42.5627 441.063 43.7106C440.016 44.8227 438.752 45.7195 437.271 46.4011C435.79 47.0468 434.183 47.3696 432.45 47.3696Z" fill="#212A38"/>
<rect x="243.318" width="1.82318" height="58.7974" fill="#212A38"/>
</svg>
