<svg width="270" height="46" viewBox="0 0 270 46" fill="none" xmlns="http://www.w3.org/2000/svg">
<path d="M27.5773 18.1634H9.7882C9.10167 18.1634 8.54549 17.6077 8.54549 16.9216V0.00595093H0V43.8988H8.54549V26.9252C8.54549 26.2392 9.10167 25.6834 9.7882 25.6834H27.5773C28.2638 25.6834 28.82 26.2392 28.82 26.9252V43.8988H37.3655V0.00595093H28.82V16.9216C28.82 17.6077 28.2638 18.1634 27.5773 18.1634Z" fill="#212A38"/>
<path d="M266.949 43.8986H269.026V36.3728H264.713C264.029 36.3728 263.473 35.8171 263.473 35.134V0.00582886H255.11V32.0658C255.11 38.5987 260.411 43.8958 266.949 43.8958V43.8986Z" fill="#212A38"/>
<path d="M219.735 34.5116C219.057 36.1673 217.699 37.4699 216.007 38.0719C214.88 38.5235 213.513 38.7927 212.03 38.8071C209.362 38.8303 207.036 38.014 205.848 36.7925C204.579 35.6405 203.785 33.9761 203.785 32.1294V29.672H228.197V26.6645C228.197 23.7787 227.594 21.0839 226.392 18.5772C225.19 16.0734 223.394 14.0472 221.007 12.5044C218.62 10.9617 215.662 10.1888 212.131 10.1888C209.443 10.1888 207.076 10.6606 205.031 11.6013C202.986 12.545 201.271 13.807 199.886 15.3903C198.502 16.9736 197.459 18.7769 196.758 20.8002C196.057 22.8235 195.703 24.9191 195.703 27.0842V28.2276C195.703 30.3117 196.054 32.3552 196.758 34.3611C197.459 36.367 198.502 38.179 199.886 39.8029C201.271 41.4267 203.015 42.7177 205.121 43.6815C207.227 44.6425 209.683 45.1259 212.493 45.1259C215.303 45.1259 217.577 44.6657 219.683 43.7423C221.789 42.8219 223.524 41.5164 224.888 39.8347C226.253 38.1501 227.174 36.1876 227.655 33.9414H219.952C219.894 34.1382 219.819 34.3264 219.735 34.5116ZM203.785 23.414C203.785 20.6728 205.538 18.3398 207.983 17.4715C209.11 17.0199 210.477 16.7507 211.96 16.7363C214.628 16.7131 216.954 17.5294 218.142 18.7509C219.411 19.9029 220.204 21.5673 220.204 23.414V24.5602H212.05C212.05 24.5602 212.038 24.5602 212.032 24.5602C212.004 24.5602 211.977 24.5602 211.949 24.5602H203.788V23.414H203.785Z" fill="#212A38"/>
<path d="M146.965 0V15.9026C145.873 14.1601 144.502 12.817 142.843 11.8763C140.896 10.7735 138.639 10.2235 136.073 10.2235C133.747 10.2235 131.629 10.6548 129.726 11.5174C127.82 12.38 126.195 13.5725 124.851 15.095C123.507 16.6176 122.464 18.4006 121.722 20.447C120.981 22.4906 120.61 24.676 120.61 27.0003V28.2623C120.61 30.6271 120.989 32.8212 121.754 34.8474C122.516 36.8707 123.599 38.645 125.004 40.1675C126.409 41.6901 128.072 42.8739 129.998 43.7162C131.925 44.5586 134.031 44.9783 136.316 44.9783C138.883 44.9783 141.18 44.4254 143.205 43.3255C145.23 42.2227 146.863 40.5583 148.109 38.3353C148.329 37.9416 148.526 37.5219 148.711 37.0935V43.8957H155.331V0H146.968H146.965ZM147.205 29.342C147.205 34.0687 143.335 37.9387 138.602 37.9387H135.85C133.309 37.9387 131.082 36.5436 129.891 34.4827C129.071 33.1743 128.512 30.5837 128.512 27.5994C128.512 24.6152 129.071 22.0246 129.891 20.7133C131.082 18.6524 133.309 17.2573 135.85 17.2573H138.602C143.332 17.2573 147.205 21.1244 147.205 25.854V29.3449V29.342Z" fill="#212A38"/>
<path d="M187.67 27.3563C185.483 25.6341 182.465 24.5718 178.615 24.1694L175.727 23.8684C173.96 23.6687 172.688 23.2866 171.906 22.7251C171.124 22.1635 170.733 21.3617 170.733 20.3197C170.733 20.1837 170.742 20.0476 170.756 19.9174C170.866 18.9101 171.385 18.0272 172.141 17.4338C172.326 17.266 172.578 17.1125 172.894 16.9765C173.056 16.9041 173.224 16.8434 173.398 16.7941C174.247 16.525 175.365 16.3571 176.596 16.3571C177.827 16.3571 178.945 16.5221 179.794 16.7941C179.968 16.8434 180.136 16.9041 180.298 16.9765C180.614 17.1125 180.866 17.266 181.051 17.4338C181.909 18.1054 182.462 19.1474 182.462 20.3197V20.7076C182.462 20.7076 182.465 20.7278 182.465 20.7394H189.988C189.866 17.3325 188.562 14.7477 186.077 12.982C183.589 11.2193 180.339 10.3364 176.329 10.3364C173.763 10.3364 171.486 10.7272 169.499 11.5087C167.514 12.2902 165.959 13.4423 164.835 14.9648C163.711 16.4873 163.149 18.3717 163.149 20.6178C163.149 23.4226 164.131 25.6688 166.098 27.3505C168.062 29.0352 170.872 30.0772 174.522 30.4766L177.41 30.7777C179.577 30.9774 181.112 31.4 182.013 32.0397C182.917 32.6823 183.366 33.542 183.366 34.6245C183.366 34.7895 183.354 34.9487 183.334 35.1021C183.293 36.396 182.581 37.5162 181.535 38.1356C181.523 38.1443 181.512 38.1501 181.5 38.1587C181.245 38.3064 180.973 38.4222 180.686 38.5061C179.643 38.8563 178.151 39.0763 176.492 39.0763C174.832 39.0763 173.34 38.8563 172.297 38.5061C172.01 38.4222 171.738 38.3064 171.483 38.1587C171.471 38.153 171.46 38.1443 171.448 38.1356C170.371 37.4959 169.647 36.3265 169.647 34.9834V34.2019H162.129C162.251 37.5683 163.584 40.2052 166.13 42.1098C168.676 44.0144 172.196 44.9667 176.691 44.9667C179.58 44.9667 182.085 44.5238 184.214 43.6439C186.341 42.764 187.995 41.5309 189.179 39.9476C190.361 38.3643 190.955 36.4915 190.955 34.3264C190.955 31.4 189.86 29.0757 187.676 27.3505L187.67 27.3563Z" fill="#212A38"/>
<path d="M62.1097 11.0893H48.6165V18.6151H65.1774C65.861 18.6151 66.4172 19.1708 66.4172 19.8539V23.9844H59.2216C57.3358 23.9844 45.4214 24.1581 45.4214 34.7492C45.4214 45.3404 57.275 44.967 57.275 44.967C57.275 44.967 64.2533 45.3056 67.3326 39.2734V43.896H73.9517V23.2579C73.9517 16.7249 68.6506 11.0893 62.1126 11.0893H62.1097ZM66.4172 32.0949C66.1507 37.7335 62.1503 38.9434 59.8328 39.01C59.7604 39.01 59.688 39.0129 59.6185 39.0129C59.5461 39.0129 59.4708 39.0129 59.3954 39.01H58.4598C55.8092 39.01 53.6627 36.8651 53.6627 34.2166V34.0227C53.6627 30.1267 57.2171 28.9717 59.6185 28.9717H66.4172V32.0921V32.0949Z" fill="#212A38"/>
<path d="M247.436 43.8986H249.513V36.3728H245.2C244.516 36.3728 243.96 35.8171 243.96 35.134V0.00582886H235.597V32.0658C235.597 38.5987 240.898 43.8958 247.436 43.8958V43.8986Z" fill="#212A38"/>
<path d="M104.469 17.7409C105.153 17.7409 105.709 18.2967 105.709 18.9798V43.8989H113.782V22.0451C113.782 15.5121 108.481 10.2151 101.943 10.2151H94.7852C88.2471 10.2151 82.946 15.5121 82.946 22.0451V43.8989H91.0194V18.9798C91.0194 18.2967 91.5755 17.7409 92.2592 17.7409H104.469Z" fill="#212A38"/>
</svg>
